<svg width="20" height="20" viewBox="0 0 20 20" fill="none" xmlns="http://www.w3.org/2000/svg">
<path d="M10 16.6667C11.8555 16.6667 13.4305 16.0195 14.725 14.725C16.0195 13.4305 16.6667 11.8555 16.6667 10C16.6667 8.1445 16.0195 6.5695 14.725 5.275C13.4305 3.9805 11.8555 3.33325 10 3.33325V10L5.4 14.75C6.0055 15.3667 6.70692 15.8403 7.50425 16.1708C8.30142 16.5014 9.13333 16.6667 10 16.6667ZM10 20C8.62783 20 7.33342 19.7375 6.11675 19.2125C4.90008 18.6875 3.83892 17.9722 2.93325 17.0667C2.02775 16.1611 1.3125 15.0999 0.7875 13.8832C0.2625 12.6666 0 11.3722 0 10C0 8.61667 0.2625 7.31667 0.7875 6.1C1.3125 4.88333 2.02775 3.825 2.93325 2.925C3.83892 2.025 4.90008 1.3125 6.11675 0.7875C7.33342 0.2625 8.62783 0 10 0C11.3833 0 12.6833 0.2625 13.9 0.7875C15.1167 1.3125 16.175 2.025 17.075 2.925C17.975 3.825 18.6875 4.88333 19.2125 6.1C19.7375 7.31667 20 8.61667 20 10C20 11.3722 19.7375 12.6666 19.2125 13.8832C18.6875 15.0999 17.975 16.1611 17.075 17.0667C16.175 17.9722 15.1167 18.6875 13.9 19.2125C12.6833 19.7375 11.3833 20 10 20ZM10 18.3333C12.3222 18.3333 14.2916 17.5222 15.9083 15.9C17.5249 14.2778 18.3333 12.3112 18.3333 10C18.3333 7.67783 17.5249 5.70842 15.9083 4.09175C14.2916 2.47508 12.3222 1.66675 10 1.66675C7.68883 1.66675 5.72217 2.47508 4.1 4.09175C2.47783 5.70842 1.66675 7.67783 1.66675 10C1.66675 12.3112 2.47783 14.2778 4.1 15.9C5.72217 17.5222 7.68883 18.3333 10 18.3333Z" fill="#8C26EA"/>
</svg>
