<svg width="632" height="554" viewBox="0 0 632 554" fill="none" xmlns="http://www.w3.org/2000/svg">
<path d="M302.277 46.8322C304.477 45.5608 307.188 45.5608 309.388 46.8322L402.137 100.436C404.334 101.706 405.687 104.051 405.687 106.588V213.809C405.687 216.347 404.334 218.692 402.137 219.961L309.388 273.565C307.188 274.837 304.477 274.837 302.277 273.565L209.529 219.961C207.332 218.692 205.979 216.347 205.979 213.809V106.588C205.979 104.051 207.332 101.706 209.529 100.436L302.277 46.8322Z" fill="url(#paint0_linear_2859_1176)"/>
<path d="M519.355 345.091C521.245 343.998 523.575 343.998 525.465 345.091L609.667 393.756C611.555 394.847 612.718 396.861 612.718 399.042V496.384C612.718 498.565 611.555 500.579 609.667 501.67L525.465 550.335C523.575 551.428 521.245 551.428 519.355 550.335L435.152 501.67C433.265 500.579 432.102 498.565 432.102 496.384V399.042C432.102 396.861 433.265 394.847 435.152 393.756L519.355 345.091Z" stroke="#0D0628" stroke-width="2"/>
<path d="M430.042 165.371C432.241 164.1 434.953 164.1 437.153 165.371L511.01 208.057C513.207 209.327 514.56 211.672 514.56 214.209V299.594C514.56 302.131 513.207 304.476 511.01 305.746L437.153 348.432C434.953 349.703 432.241 349.703 430.042 348.432L356.184 305.746C353.987 304.476 352.634 302.131 352.634 299.594V214.209C352.634 211.672 353.987 209.327 356.184 208.057L430.042 165.371Z" fill="#0D0628"/>
<path d="M219.676 315.973C221.566 314.881 223.896 314.881 225.786 315.973L285.25 350.341C287.138 351.432 288.3 353.446 288.3 355.627V424.374C288.3 426.554 287.138 428.569 285.25 429.66L225.786 464.027C223.896 465.12 221.566 465.12 219.676 464.027L160.212 429.66C158.324 428.569 157.162 426.554 157.162 424.374V355.627C157.162 353.446 158.324 351.432 160.212 350.341L219.676 315.973Z" stroke="#0D0628" stroke-width="2"/>
<path d="M552.598 130.886C554.488 129.793 556.818 129.793 558.708 130.886L617.722 164.993C619.61 166.084 620.772 168.099 620.772 170.279V238.506C620.772 240.687 619.61 242.701 617.722 243.792L558.708 277.9C556.818 278.992 554.488 278.992 552.598 277.9L493.584 243.792C491.696 242.701 490.533 240.687 490.533 238.506V170.279C490.533 168.099 491.696 166.084 493.584 164.993L552.598 130.886Z" stroke="#8C26EA" stroke-width="2"/>
<path d="M186.438 131.925C188.328 130.832 190.657 130.832 192.548 131.925L252.012 166.292C253.899 167.383 255.062 169.398 255.062 171.578V240.325C255.062 242.505 253.899 244.52 252.012 245.611L192.548 279.979C190.657 281.071 188.328 281.071 186.438 279.979L126.974 245.611C125.086 244.52 123.923 242.505 123.923 240.325V171.578C123.923 169.398 125.086 167.383 126.974 166.292L186.438 131.925Z" stroke="#0D0628" stroke-width="2"/>
<path d="M53.0822 277.749C54.9724 276.656 57.3022 276.656 59.1924 277.749L100.703 301.74C102.591 302.831 103.754 304.846 103.754 307.026V355.022C103.754 357.202 102.591 359.217 100.703 360.308L59.1924 384.299C57.3022 385.391 54.9724 385.391 53.0822 384.299L11.5713 360.308C9.68362 359.217 8.52097 357.202 8.52097 355.022V307.026C8.52097 304.846 9.68362 302.831 11.5713 301.74L53.0822 277.749Z" stroke="#8C26EA" stroke-width="2"/>
<path d="M386.414 298.471C388.614 297.2 391.325 297.2 393.525 298.471L452.989 332.838C455.185 334.108 456.538 336.453 456.538 338.99V407.737C456.538 410.275 455.185 412.62 452.989 413.889L393.525 448.256C391.325 449.528 388.614 449.528 386.414 448.256L326.95 413.889C324.753 412.62 323.4 410.275 323.4 407.737V338.99C323.4 336.453 324.753 334.108 326.95 332.838L386.414 298.471Z" fill="url(#paint1_linear_2859_1176)"/>
<path d="M486.938 1.42951C488.468 0.545051 490.354 0.545051 491.885 1.42951L535.559 26.6709C537.087 27.5542 538.028 29.1854 538.028 30.9505V81.4422C538.028 83.2074 537.087 84.8386 535.559 85.7218L491.885 110.963C490.354 111.848 488.468 111.848 486.938 110.963L443.264 85.7218C441.736 84.8386 440.794 83.2074 440.794 81.4422V30.9505C440.794 29.1854 441.736 27.5542 443.264 26.6709L486.938 1.42951Z" fill="url(#paint2_linear_2859_1176)"/>
<defs>
<linearGradient id="paint0_linear_2859_1176" x1="405.568" y1="243.302" x2="37.0801" y2="100.438" gradientUnits="userSpaceOnUse">
<stop stop-color="#5F01D6"/>
<stop offset="0.843182" stop-color="#BE50FF"/>
</linearGradient>
<linearGradient id="paint1_linear_2859_1176" x1="456.46" y1="428.766" x2="210.801" y2="333.523" gradientUnits="userSpaceOnUse">
<stop stop-color="#5F01D6"/>
<stop offset="0.843182" stop-color="#BE50FF"/>
</linearGradient>
<linearGradient id="paint2_linear_2859_1176" x1="537.971" y1="96.6578" x2="358.561" y2="27.1002" gradientUnits="userSpaceOnUse">
<stop stop-color="#5F01D6"/>
<stop offset="0.843182" stop-color="#BE50FF"/>
</linearGradient>
</defs>
</svg>
