<svg width="25" height="24" viewBox="0 0 25 24" fill="none" xmlns="http://www.w3.org/2000/svg">
<path d="M8.33203 3H8.13203C6.45187 3 5.61179 3 4.97006 3.32698C4.40557 3.6146 3.94663 4.07354 3.65901 4.63803C3.33203 5.27976 3.33203 6.11984 3.33203 7.8V8M8.33203 21H8.13203C6.45187 21 5.61179 21 4.97006 20.673C4.40557 20.3854 3.94663 19.9265 3.65901 19.362C3.33203 18.7202 3.33203 17.8802 3.33203 16.2V16M21.332 8V7.8C21.332 6.11984 21.332 5.27976 21.0051 4.63803C20.7174 4.07354 20.2585 3.6146 19.694 3.32698C19.0523 3 18.2122 3 16.532 3H16.332M21.332 16V16.2C21.332 17.8802 21.332 18.7202 21.0051 19.362C20.7174 19.9265 20.2585 20.3854 19.694 20.673C19.0523 21 18.2122 21 16.532 21H16.332" stroke="black" stroke-width="2" stroke-linecap="round" stroke-linejoin="round"/>
</svg>
